<?xml version="1.0" encoding="utf-8"?>
<!-- Generator: Adobe Illustrator 22.0.0, SVG Export Plug-In . SVG Version: 6.00 Build 0)  -->
<svg version="1.1" id="Layer_2_1_" xmlns="http://www.w3.org/2000/svg" xmlns:xlink="http://www.w3.org/1999/xlink" x="0px" y="0px"
	 viewBox="0 0 855 855" style="enable-background:new 0 0 855 855;" xml:space="preserve">
<style type="text/css">
	.st0{fill:#FFFFFF;}
</style>
<title>Artboard 1</title>
<path class="st0" d="M761.8,259.4L401.5,59.6c-7.7-4.3-17.5-1.5-21.8,6.2L89.2,589.7c-4.3,7.7-1.5,17.5,6.2,21.8l360.3,199.8
	c7.7,4.3,17.5,1.5,21.8-6.2L768,281.1C772.3,273.4,769.5,263.7,761.8,259.4z M303.8,700.9c-16.6,0-30-13.4-30-30s13.4-30,30-30
	s30,13.4,30,30S320.3,700.9,303.8,700.9z M461.6,185.2c-10.2,0-18.5-8.3-18.5-18.5s8.3-18.5,18.5-18.5c10.2,0,18.5,8.3,18.5,18.5
	S471.8,185.2,461.6,185.2z M611.2,242.2l-6.3,11.4c-3.2,5.8-10.5,7.9-16.3,4.7l-92.7-51.4c-5.8-3.2-7.9-10.5-4.7-16.3l6.3-11.4
	c3.2-5.8,10.5-7.9,16.3-4.7l92.7,51.4C612.3,229.1,614.4,236.4,611.2,242.2z M634.8,278.2c-8.6,0-15.5-6.9-15.5-15.5
	s6.9-15.5,15.5-15.5s15.5,6.9,15.5,15.5S643.3,278.2,634.8,278.2z"/>
<g>
	<path class="st0" d="M803.5,492.5c1.2,31.8-3.3,63.6-13.2,93.5c-2.5,7.5-5.3,14.8-8.4,22c-1.6,3.6-3.2,7.2-5,10.7l-2.6,5.3
		c-0.4,0.9-0.9,1.8-1.3,2.6l-1.4,2.6c-7.4,13.8-16.1,26.8-25.9,39c-9.8,12.1-20.6,23.3-32.2,33.5c-11.7,10.1-24.2,19.1-37.1,27.2
		c-6.5,3.9-13.2,7.7-20,11.1c-6.8,3.4-13.7,6.6-20.7,9.6c-7,2.9-14.1,5.6-21.3,7.9c-7.3,2.3-14.5,4.4-22.2,6.1
		c-7.6,1.7-15-3.1-16.7-10.7c-1.6-7.2,2.7-14.4,9.7-16.4l0.2-0.1c6.2-1.8,12.7-4.1,18.9-6.7c6.3-2.6,12.5-5.4,18.6-8.4
		c6.1-3,12-6.3,17.8-9.8c5.8-3.5,11.4-7.2,17-11.1c11-7.9,21.3-16.5,30.7-25.9c9.4-9.4,18-19.6,25.5-30.4
		c7.5-10.8,14.1-22.2,19.5-34.2l1-2.2c0.3-0.7,0.6-1.5,1-2.3l1.9-4.5c1.3-3,2.4-6.1,3.5-9.2c2.1-6.2,4-12.4,5.7-18.7
		c6.4-25.2,8.3-51.5,5.5-77c-1.5-14.2,8.7-26.9,22.9-28.5c14.2-1.5,26.9,8.7,28.5,22.9c0.1,0.6,0.1,1.1,0.1,1.7L803.5,492.5z"/>
</g>
<polygon class="st0" points="711.4,530.4 752.5,397 847.5,499.3 "/>
<g>
	<path class="st0" d="M42.7,365.8c-0.2-29.7,4.8-59.2,14.7-86.8c4.9-13.8,11.1-27.1,18.3-39.8c7.2-12.7,15.5-24.7,24.8-35.8
		c18.5-22.3,41-40.8,65.3-55.4c6.1-3.7,12.3-7,18.6-10.2c6.3-3.1,12.7-6,19.3-8.7c6.5-2.7,13.1-5.1,19.8-7.2c3.4-1.1,6.7-2.1,10.2-3
		c3.4-0.9,6.9-1.8,10.5-2.6c7.6-1.6,15,3.3,16.6,10.8c1.5,7.2-2.8,14.2-9.7,16.3l-0.3,0.1c-2.8,0.8-5.7,1.8-8.6,2.8
		c-2.9,1-5.8,2.2-8.7,3.3c-5.8,2.4-11.5,5-17.1,7.8c-5.6,2.8-11.1,5.8-16.4,9c-5.3,3.3-10.6,6.6-15.6,10.2
		c-20.2,14.4-38,31.7-51.9,51.5c-7,9.9-13,20.3-18.1,31.2c-5.1,10.9-9.3,22.1-12.4,33.7c-6.2,23-8.3,47-6.2,70.3
		c1.3,14.6-9.5,27.5-24.1,28.8s-27.5-9.5-28.8-24.1c-0.1-0.7-0.1-1.4-0.1-2.1L42.7,365.8z"/>
</g>
<polygon class="st0" points="136.3,329.3 93.3,462.1 -0.2,358.5 "/>
<path class="st0" d="M671,330.3L385,171.7c-5.8-3.2-13.1-1.1-16.3,4.7l-195,351.6c-3.2,5.8-1.1,13.1,4.7,16.3l286,158.6
	c5.8,3.2,13.1,1.1,16.3-4.7l195-351.6C678.9,340.8,676.8,333.5,671,330.3z"/>
</svg>
