<?xml version="1.0" encoding="utf-8"?>
<!-- Generator: Adobe Illustrator 22.0.0, SVG Export Plug-In . SVG Version: 6.00 Build 0)  -->
<svg version="1.1" id="Layer_4" xmlns="http://www.w3.org/2000/svg" xmlns:xlink="http://www.w3.org/1999/xlink" x="0px" y="0px"
	 viewBox="0 0 855 855" style="enable-background:new 0 0 855 855;" xml:space="preserve">
<style type="text/css">
	.st0{fill:#FFFFFF;}
</style>
<title>swipe</title>
<path class="st0" d="M349.7,514.2V168.4c0,0,0-40.5,44-44.1c31.2-2.6,56.9,12.3,56.9,42.9v221.9c0,0,6.5,2.5,10.3-1.2
	c1.3-12.3-1.3-55.2,49.1-56.4c40.1-0.9,54.3,25.7,53,55.2c4.2,1.4,8.8,1.4,12.9,0c0,0,5.2-33.1,45.3-33.1c34.9,0,53,13.5,55.6,55.2
	c4.6,1.5,9.6,1.5,14.2,0c0,0,7.8-25.7,49.1-25.7c29.7,0,45.3,20.8,45.3,34.3v218.2c0,0-27.2,177.8-231.5,195
	c-108.6-6.1-135.8-24.5-190.1-73.6c-26.7-30.9-58.2-78.5-58.2-78.5S173.8,486,168.6,477.4c-5.2-8.6-15.5-39.2,15.5-58.9
	c24.6-14.7,54.3-14.7,72.4,9.8c19.4,19.6,68.1,89.5,77.6,92C348.4,524,349.7,514.2,349.7,514.2z"/>
<path class="st0" d="M159.4,119.2L106,172.8v-28.3l51.5,54.2c6.4,6.6,6,16.8-1,22.9c-6.5,5.7-16.6,5.7-23.2,0l-57.2-48.8
	c-8.2-7-8.9-19.1-1.5-26.9c0.3-0.4,0.7-0.7,1.1-1.1l0.4-0.4l56.5-50.6c7.6-6.8,19.5-6.6,26.7,0.6
	C166.3,101.3,166.3,112.2,159.4,119.2L159.4,119.2z"/>
<path class="st0" d="M215.2,172.7c-10.3,1.8-20.8,2.9-31.2,3.8s-20.8,1.4-31.2,1.7c-5.2,0.2-10.3,0.3-15.6,0.3s-10.3,0.2-15.6-0.1
	c-5.2-0.2-10.4-0.8-15.6-1.6c-5.3-0.8-10.6-2.2-15.6-4.1c-8.6-3.4-12.6-12.7-9.1-20.8c1.7-3.9,5-7,9.1-8.6c5-1.9,10.3-3.2,15.6-4.1
	c5.2-0.9,10.4-1.4,15.6-1.6c5.2-0.3,10.3-0.2,15.6-0.1c5.3,0,10.3,0.1,15.6,0.3c10.3,0.3,20.8,0.9,31.2,1.8
	c10.4,0.9,20.8,2,31.2,3.8c8.6,1.5,14.2,9.3,12.7,17.4C226.7,166.8,221.7,171.6,215.2,172.7L215.2,172.7z"/>
<path class="st0" d="M664.4,93.8l56.5,50.6l0.4,0.3c8.1,7.2,8.5,19.3,0.9,26.9c0,0,0,0,0,0c-0.4,0.4-0.8,0.7-1.2,1.1l-57.2,48.8
	c-7,6-17.8,5.4-24.1-1.2c-5.9-6.2-5.9-15.5,0-21.7l51.4-54.2v28.3l-53.4-53.6c-7.2-7.2-6.9-18.5,0.6-25.3
	C645.6,87.2,657.1,87.2,664.4,93.8L664.4,93.8z"/>
<path class="st0" d="M581.9,143.3c10.3-1.8,20.8-2.9,31.2-3.8c10.4-0.9,20.8-1.4,31.2-1.8c5.2-0.2,10.3-0.3,15.6-0.3
	c5.3-0.1,10.3-0.2,15.6,0.1c5.2,0.2,10.4,0.8,15.6,1.6c5.3,0.8,10.6,2.2,15.6,4.1c8.6,3.4,12.6,12.7,9.1,20.8c-1.7,3.9-5,7-9.1,8.6
	c-5,1.9-10.3,3.3-15.6,4.1c-5.2,0.8-10.4,1.4-15.6,1.6c-5.2,0.3-10.3,0.2-15.6,0.1c-5.3,0-10.3-0.1-15.6-0.3
	c-10.4-0.3-20.8-0.9-31.2-1.7c-10.3-0.9-20.8-2-31.2-3.8c-8.6-1.5-14.2-9.3-12.7-17.4C570.4,149.2,575.4,144.4,581.9,143.3
	L581.9,143.3z"/>
<path class="st0" d="M296,206.3c-13-16.7-20.7-36.6-22-57.3c-1.5-21.4,3.4-42.7,14.1-61.6c10.8-19.2,27-35.2,46.8-46.3
	c9.9-5.5,20.6-9.8,31.7-12.7c11.2-2.7,22.7-4.1,34.2-4c11.5,0.2,23,1.8,34,4.8c33.4,9.2,61.3,31.2,77,60.7
	c10.1,19.1,14.4,40.5,12.5,61.8c-1.8,20.7-10,40.4-23.4,56.8c-4.5,5.3-12.7,6.2-18.3,1.9c-4.6-3.5-6.2-9.5-3.8-14.7l0.2-0.3
	c3.4-7.1,5.9-14.6,7.5-22.2c1.5-7.4,2.1-15,1.6-22.6c-1.1-22-11-42.8-27.7-58.2c-1.3-1.2-2.8-2.4-4.2-3.6l-2.2-1.7
	c-0.7-0.6-1.4-1.1-2.2-1.6c-3-2.1-6.1-4.1-9.3-5.8c-1.7-0.8-3.3-1.7-4.9-2.5c-0.8-0.4-1.6-0.8-2.5-1.2l-2.6-1
	c-3.4-1.3-6.9-2.5-10.5-3.3c-7.1-1.9-14.5-2.8-21.9-2.9c-14.8-0.2-29.5,3.2-42.6,9.9c-9.9,5-18.7,11.8-25.9,20
	c-0.6,0.7-1.2,1.4-1.8,2.1c-0.6,0.7-1.2,1.4-1.7,2.1c-1.1,1.5-2.2,2.9-3.2,4.4c-2.1,3-3.9,6.2-5.6,9.4c-1.6,3.3-3.1,6.6-4.3,10.1
	c-2.5,7-4,14.3-4.6,21.7c-0.6,7.6-0.3,15.1,1,22.6c1.4,7.7,3.7,15.2,6.9,22.4l0.1,0.3c2.8,6.3-0.2,13.5-6.9,16.2
	C306,212.5,299.6,210.9,296,206.3L296,206.3z"/>
</svg>
